<svg xmlns="http://www.w3.org/2000/svg" height="40" viewBox="0 -960 960 960" width="40"><path d="M514.36-308.385 596-367.77l81.23 59.385-30.512-99.564 81.358-67.435h-99.451L596-573.204l-32.923 97.82h-99.82l81.615 67.435-30.512 99.564ZM162.565-180.001q-25.788 0-44.176-18.564t-18.388-44v-474.87q0-25.436 18.388-44t44.176-18.564h239.511l70.257 70.257h325.102q25.436 0 44 18.564t18.564 43.999v404.614q0 25.436-18.564 44t-44 18.564h-634.87Zm0-50.255h634.87q5.385 0 8.847-3.462 3.462-3.462 3.462-8.847v-404.614q0-5.385-3.462-8.846-3.462-3.462-8.847-3.462H451.846l-70.256-70.257H162.565q-5.385 0-8.847 3.462-3.462 3.462-3.462 8.847v474.87q0 5.385 3.462 8.847 3.462 3.462 8.847 3.462Zm-12.309 0v-499.488V-230.256Z"/></svg>